<?xml version="1.0" encoding="UTF-8"?>
<svg width="700pt" height="700pt" version="1.1" viewBox="0 0 700 700" xmlns="http://www.w3.org/2000/svg">
 <path d="m350 17.5c-144.73 0-262.5 117.77-262.5 262.5s117.77 262.5 262.5 262.5 262.5-117.77 262.5-262.5-117.77-262.5-262.5-262.5zm0 490c-125.48 0-227.5-102.02-227.5-227.5s102.02-227.5 227.5-227.5 227.5 102.02 227.5 227.5-102.02 227.5-227.5 227.5zm82.426-285.07-57.75 57.574 57.574 57.574c6.8242 6.8242 6.8242 17.852 0 24.676-3.3242 3.5-7.6992 5.25-12.25 5.25s-8.9258-1.75-12.426-5.0742l-57.574-57.75-57.574 57.574c-3.5 3.5-7.875 5.25-12.426 5.25s-8.9258-1.75-12.426-5.0742c-6.8242-6.8242-6.8242-17.852 0-24.676l57.75-57.75-57.574-57.574c-6.8242-6.8242-6.8242-17.852 0-24.676s17.852-6.8242 24.676 0l57.574 57.574 57.574-57.574c6.8242-6.8242 17.852-6.8242 24.676 0s7 17.852 0.17578 24.676z"/>
</svg>
