<svg width="24" height="24" viewBox="0 0 24 24" fill="none" xmlns="http://www.w3.org/2000/svg">
<path d="M23.125 5.15625C22.5625 6.03125 21.8125 6.8125 20.875 7.5V8.0625C20.875 11.3438 19.6953 14.3203 17.3359 16.9922C14.9766 19.6641 11.8438 21 7.9375 21C5.43749 21 3.12501 20.3125 1 18.9375C1.5 19 1.85937 19.0312 2.07812 19.0312C4.17189 19.0312 6.04687 18.375 7.70312 17.0625C6.73437 17.0312 5.85938 16.7266 5.07812 16.1484C4.29687 15.5703 3.76563 14.8281 3.48438 13.9219C3.85938 13.9844 4.14062 14.0156 4.32812 14.0156C4.64063 14.0156 5.04687 13.9531 5.54688 13.8281C4.51562 13.6094 3.64844 13.0859 2.94531 12.2578C2.24218 11.4297 1.89062 10.4688 1.89062 9.375V9.32812C2.57813 9.70313 3.26562 9.89062 3.95312 9.89062C2.60937 9.01562 1.9375 7.75001 1.9375 6.09375C1.9375 5.3125 2.14062 4.5625 2.54688 3.84375C4.95314 6.81251 8.06248 8.39062 11.875 8.57812C11.8125 8.35937 11.7812 8.01563 11.7812 7.54688C11.7812 6.26562 12.2187 5.1875 13.0938 4.3125C13.9688 3.4375 15.0469 3 16.3281 3C17.6094 3 18.7031 3.48437 19.6094 4.45312C20.5469 4.29687 21.5156 3.92188 22.5156 3.32812C22.2031 4.42188 21.5313 5.26562 20.5 5.85938C21.4688 5.76562 22.3437 5.53125 23.125 5.15625Z" fill="#31B5DF"/>
<mask id="mask0_90_1602" style="mask-type:alpha" maskUnits="userSpaceOnUse" x="1" y="3" width="23" height="18">
<path d="M23.125 5.15625C22.5625 6.03125 21.8125 6.8125 20.875 7.5V8.0625C20.875 11.3438 19.6953 14.3203 17.3359 16.9922C14.9766 19.6641 11.8438 21 7.9375 21C5.43749 21 3.12501 20.3125 1 18.9375C1.5 19 1.85937 19.0312 2.07812 19.0312C4.17189 19.0312 6.04687 18.375 7.70312 17.0625C6.73437 17.0312 5.85938 16.7266 5.07812 16.1484C4.29687 15.5703 3.76563 14.8281 3.48438 13.9219C3.85938 13.9844 4.14062 14.0156 4.32812 14.0156C4.64063 14.0156 5.04687 13.9531 5.54688 13.8281C4.51562 13.6094 3.64844 13.0859 2.94531 12.2578C2.24218 11.4297 1.89062 10.4688 1.89062 9.375V9.32812C2.57813 9.70313 3.26562 9.89062 3.95312 9.89062C2.60937 9.01562 1.9375 7.75001 1.9375 6.09375C1.9375 5.3125 2.14062 4.5625 2.54688 3.84375C4.95314 6.81251 8.06248 8.39062 11.875 8.57812C11.8125 8.35937 11.7812 8.01563 11.7812 7.54688C11.7812 6.26562 12.2187 5.1875 13.0938 4.3125C13.9688 3.4375 15.0469 3 16.3281 3C17.6094 3 18.7031 3.48437 19.6094 4.45312C20.5469 4.29687 21.5156 3.92188 22.5156 3.32812C22.2031 4.42188 21.5313 5.26562 20.5 5.85938C21.4688 5.76562 22.3437 5.53125 23.125 5.15625Z" fill="white"/>
</mask>
<g mask="url(#mask0_90_1602)">
<rect width="24" height="24" fill="#31B5DF"/>
</g>
</svg>
